<svg xmlns="http://www.w3.org/2000/svg" width="186" height="222" viewBox="0 0 186 222">
  <g fill="none" fill-rule="evenodd" transform="translate(.867 .207)">
    <path fill="#FEFEFE" d="M164.8031,93.5118 C170.2581,102.3628 165.5881,109.7488 164.0951,112.4338 C164.1791,113.8578 164.2271,115.2918 164.2271,116.7378 C164.2271,156.4058 132.0701,188.5638 92.4011,188.5638 C52.7331,188.5638 20.5751,156.4058 20.5751,116.7378 C20.5751,101.0098 25.6341,86.4658 34.2081,74.6358 C41.9131,63.6348 52.6551,54.9168 65.2221,49.6988 L69.7191,48.0168 C69.7191,48.0168 71.2831,43.4438 77.8651,41.0328 C77.8651,41.0328 82.1341,33.4118 92.8121,35.6998 C93.8911,34.8268 95.2371,33.9868 96.8731,33.3828 C99.2151,32.3498 102.0051,31.8118 105.3241,31.8178 C107.7041,31.8288 109.8351,32.3368 111.7081,33.0958 C111.6851,32.9968 111.6701,32.9248 111.6611,32.8868 L111.5121,32.1628 L111.5201,32.0898 C110.6251,26.2658 113.7301,21.7448 114.8841,20.2998 C112.6321,10.0818 123.6391,7.5448 125.9131,7.9048 C125.9131,7.8918 125.9111,7.8768 125.9111,7.8628 C125.9291,6.6408 126.0911,5.3868 126.8531,3.9388 C129.0441,0.3398 132.8091,0.7818 132.9921,0.8138 C137.2411,-1.0842 141.1311,0.7698 141.7181,2.0058 C142.3021,3.2408 144.1581,6.9688 144.1581,6.9688 C144.4021,7.5218 144.4841,7.8848 144.6161,8.3228 C144.7541,8.8528 144.8771,9.3998 144.9931,9.9728 C145.1701,10.8738 145.3321,11.8348 145.4661,12.7198 L145.5261,12.9488 C145.5261,12.9488 145.5511,13.0758 145.6271,13.3698 C145.7021,13.6618 145.8211,14.0848 145.9671,14.5528 C146.2451,15.4768 146.7011,16.6268 146.9911,17.1018 C147.2211,17.4998 147.4261,17.8368 147.5921,18.1018 C147.7831,18.1398 147.9731,18.1848 148.1571,18.2428 C148.8541,18.4558 149.4221,18.7418 149.9691,19.0598 C149.9691,19.0648 150.0501,19.0838 150.8111,19.4178 C151.5311,19.7058 152.9671,20.6608 153.7091,21.9958 C154.2171,22.8598 154.4781,23.7168 154.6531,24.5438 C155.0931,26.5618 155.1731,27.9328 155.1531,28.9398 C155.1531,29.2178 155.1621,29.5168 155.1621,29.8948 C155.1571,29.9938 155.1541,30.1178 155.1511,30.2528 C155.1561,30.4668 155.1571,30.6708 155.1531,30.8588 C155.1531,31.1358 155.1621,31.4338 155.1621,31.8118 C155.1251,32.4428 155.2531,33.8048 154.0801,35.6328 L154.0931,35.6428 C154.0281,35.7738 153.9291,35.9908 153.8311,36.2658 C153.6971,36.6478 153.5761,37.1408 153.5141,37.6888 C153.5441,38.3978 153.5681,39.1308 153.5801,39.8918 C153.7801,42.7788 154.3701,46.6218 155.4881,49.1938 C158.1571,55.4908 160.0541,59.7618 160.0601,59.7738 L161.6591,63.3818 L162.3591,64.9228 L161.6591,65.2988 L158.3341,67.4178 C158.3171,67.4328 158.0581,67.5988 157.6101,67.8718 C157.9201,68.7518 158.2951,69.9108 158.4871,71.3258 C158.8271,71.7298 159.1131,72.1438 159.3381,72.5398 C159.9751,73.6528 160.2911,74.6608 160.5371,75.5228 C160.9221,77.0128 161.2391,78.1588 161.3711,78.4568 L162.9021,80.6648 L162.7281,83.1858 L165.8191,88.7638 C165.8191,88.7638 164.7091,93.3618 164.8031,93.5118 Z"/>
    <path fill="#404042" d="M152.3539,119.4122 C150.8479,151.2022 124.5989,176.5152 92.4369,176.5152 C59.3059,176.5152 32.4489,149.6572 32.4489,116.5262 C32.4489,92.4032 46.6899,71.6092 67.2209,62.0842 L71.4559,53.0762 C44.8329,61.8752 25.6219,86.9552 25.6219,116.5262 C25.6219,153.4282 55.5359,183.3422 92.4369,183.3422 C129.2019,183.3422 159.0279,153.6462 159.2469,116.9332 L152.3549,119.4122 L152.3539,119.4122 Z"/>
    <path fill="#404042" d="M58.1517,141.3722 L58.8827,147.5592 L58.2147,148.3942 L52.9777,124.6712 L52.9457,124.5562 L52.9527,124.5552 L52.9387,124.4952 L52.9427,124.4952 L52.9387,124.4762 L52.9717,124.4922 L61.6027,123.6082 L56.2817,106.0012 L57.4037,105.6232 L65.6937,128.6622 L74.2887,126.2692 L75.8347,129.7722 C75.8347,129.7722 86.4137,131.9852 86.4137,132.7962 C86.4137,142.8112 64.7567,144.4372 58.1517,141.3722 L58.1517,141.3722 Z M93.7067,133.9902 L92.2887,130.0772 C92.0067,123.7992 91.8437,118.2092 91.8437,118.2092 L96.3977,102.0272 L95.4507,101.6312 L94.1317,103.4312 L89.2507,107.1112 C89.2507,107.1112 85.4597,109.3782 85.2027,110.7862 C84.9467,112.1982 84.5607,113.4812 84.5607,113.8652 C84.5607,114.2492 83.2767,116.9462 83.6607,118.8722 C84.0467,120.7902 81.8667,117.3292 81.8667,117.3292 L82.8907,113.7382 L80.0707,116.8162 L79.4257,120.2812 L79.0447,116.5582 L80.3267,113.8652 L78.4277,114.2472 L75.4887,116.2502 L77.3597,113.7612 L81.4627,111.7802 C80.2377,111.7922 77.6807,112.0002 75.8397,113.4392 C73.3387,115.3942 70.5767,121.6912 70.5767,121.6912 C70.5767,121.6912 72.9477,112.9712 74.8237,111.7202 C75.8887,111.0112 78.2637,109.9472 80.1207,109.1612 L80.1117,109.1552 C80.1387,109.1472 80.1557,109.1432 80.1787,109.1362 C80.2147,109.1202 80.2507,109.1052 80.2877,109.0902 C80.1347,108.9562 72.8807,102.5902 66.5567,98.7152 L66.5637,98.7082 C64.9057,97.8352 61.2277,93.4882 59.4637,90.7972 C57.6997,88.1022 57.4397,87.3132 54.1407,87.2232 C53.0817,87.1932 51.8587,86.9202 50.5277,86.8812 L48.9727,81.9282 C48.9727,81.9282 48.9627,81.9192 48.9607,81.9172 C48.6437,81.0212 47.6927,80.5032 46.7607,80.7552 C45.8167,81.0112 45.2537,81.9582 45.4537,82.9022 L45.4497,82.9182 C45.6167,83.8532 46.2007,85.8772 46.7497,87.7182 C46.9587,88.4202 47.2227,89.3492 47.5277,90.4342 C45.4717,90.6572 43.0467,91.0222 43.0087,92.4342 C42.9637,94.2192 43.5027,95.0812 44.6557,95.4872 C43.6097,95.9002 42.8417,96.4552 42.9157,97.2672 C43.0947,99.2932 43.8917,100.0452 45.4267,100.1962 C45.5857,100.2122 45.8337,100.2202 46.1227,100.2232 C45.3927,100.6682 44.9227,101.2002 45.0357,101.8622 C45.3787,103.8702 46.2337,104.5552 47.7757,104.5822 C47.8497,104.5832 47.9517,104.5792 48.0547,104.5752 C48.0367,104.6762 48.0307,104.7792 48.0487,104.8882 C48.3177,106.4532 48.9857,106.9842 50.1887,107.0072 C50.4957,107.0132 51.1557,106.9582 51.9647,106.8562 C53.0467,110.9312 54.0517,114.7512 54.7517,117.4102 L50.7897,117.9582 L48.3287,124.3782 L50.8717,132.2532 L47.9147,130.3032 C45.6897,133.3182 44.3057,138.8972 44.4787,142.5122 C53.7127,159.5172 71.7257,171.0612 92.4367,171.0612 C93.4917,171.0612 94.5387,171.0272 95.5787,170.9692 C94.5927,163.8332 93.5497,150.3332 92.8147,139.6832 L93.7067,133.9902 Z"/>
    <path fill="#404042" d="M64.1625 133.9122C64.3145 134.4582 64.4205 134.9092 64.4855 135.2802L75.2295 135.0592C74.9965 134.5802 74.7575 134.1082 74.5135 133.6432L64.1625 133.9122zM73.5336 131.8917C73.2106 131.3477 72.8786 130.8317 72.5386 130.3337L65.0746 131.3247 65.2526 132.0587 73.5336 131.8917zM62.6224 126.9845L62.1784 125.5145 59.0544 125.5845 58.4434 125.5865C58.7624 125.9245 59.1834 126.4075 59.6434 127.0245L62.6224 126.9845zM61.7777 129.4913L63.3697 129.4583 62.8787 127.8333 60.8437 127.8873C61.1607 128.3693 61.4767 128.9033 61.7777 129.4913M63.0824 132.089L64.1624 132.08 63.7024 130.559 62.5254 130.577C62.6254 130.816 62.9954 131.836 63.0824 132.089M56.4857 127.2872L57.7927 139.5002 63.2717 136.8992C63.2367 136.7602 60.6977 128.5142 56.4857 127.2872M162.3119 100.5802C161.9839 97.9272 160.0489 96.3632 159.3759 94.1382L160.5469 89.4492C160.5469 89.4492 158.6069 86.7102 157.6249 85.3502 157.6249 85.3502 158.2829 84.0582 158.2099 83.0042 156.0929 81.0242 156.8129 76.2022 154.1029 74.8032 154.2359 70.9712 151.7729 66.4642 152.2719 65.1372 154.4779 63.8802 155.9549 62.9382 155.9549 62.9382 155.9549 62.9382 154.0369 58.6182 151.3529 52.2872 149.8919 48.8432 149.3119 44.5862 149.0839 41.4102 149.0659 40.3512 149.0339 39.3222 148.9859 38.4442 148.7999 35.2002 150.1089 32.8102 150.4269 32.3592 150.7409 31.9072 150.6509 31.2302 150.6509 30.2402 150.6509 29.2472 150.6509 28.7512 150.2439 26.7682 149.8409 24.7852 148.9369 25.0122 147.7669 24.3332 146.5919 23.6562 146.5039 23.9732 145.7389 23.8382 144.9679 23.7012 144.3379 22.8012 143.1219 20.7262 141.9089 18.6542 140.3489 10.6532 139.9659 9.9532 139.4239 8.9592 139.3809 6.1632 137.7539 5.9392 136.1349 5.7132 134.3329 6.9772 132.4369 6.6572 130.5449 6.3442 130.2279 9.5022 130.9509 10.8542 131.6699 12.2072 133.5659 11.7122 134.3329 11.8892 135.0959 12.0702 134.8049 19.6632 134.7799 19.7462 132.6479 19.0112 130.2159 15.9302 128.3359 15.0682 127.2759 14.5722 123.1889 12.1982 121.0709 14.2872 120.9529 14.3532 120.5859 14.7742 120.5299 14.8492 118.7919 17.0862 119.2289 18.5102 119.7839 19.5062 120.3439 20.4972 121.2789 21.0592 121.8969 20.3092 122.5259 19.5662 122.8249 19.1292 123.4499 19.1292 124.0359 19.1292 124.1809 19.6082 124.2389 19.7462 124.8379 21.1882 127.5949 20.8942 127.7389 23.0032 126.0579 23.0302 121.5269 23.1782 119.9649 23.9602 118.0359 24.9262 116.2409 31.3402 116.2409 31.3402 116.2409 31.3402 116.6569 33.3392 117.4139 33.2702 117.8709 33.2292 118.4729 33.1382 118.9869 32.9962 118.1659 33.6732 117.4139 34.5902 117.4139 35.6842 117.4139 38.0972 119.6619 40.6962 121.1369 40.1672 121.1369 40.1672 122.0749 39.3822 122.1519 37.9622 122.1519 37.9622 124.9989 42.2482 125.2209 42.6732 125.8169 43.2352 126.5779 43.7612 127.4669 44.3382 129.0409 45.3662 130.6979 47.9662 130.6979 49.2262 130.6979 50.4892 130.5409 50.8042 131.0929 51.9072 131.2529 52.2282 131.4389 52.5052 131.6119 52.7882 132.1229 53.4912 132.2149 54.1642 132.1769 55.0612 132.1689 55.3472 131.9959 56.0802 131.8029 56.9922 131.7909 57.0492 131.7809 57.1012 131.7699 57.1562 131.5769 58.1072 131.5899 59.1032 132.3709 59.3802 132.5609 59.4472 132.7039 59.5042 132.8169 59.5642 132.8299 59.5722 132.8419 59.5792 132.8539 59.5872 133.1779 59.7742 133.2139 59.9962 133.3059 60.5802 133.4259 61.3412 131.7199 73.0192 131.5719 74.0312 132.2179 73.7272 133.1469 73.2942 134.2709 72.7782L135.3859 72.2692C137.5489 71.2872 140.2079 70.1092 142.8479 69.0132 148.9369 66.4912 150.4679 65.8562 150.4679 65.8562 150.4679 65.8562 146.5039 70.2792 141.0959 72.6672 138.9409 73.6162 137.0719 74.5202 135.5929 75.2682L136.7429 91.9342 141.5109 95.2442 137.1409 94.5792 136.2159 101.6012 135.4189 96.0392 131.1809 97.3652 133.5639 93.5232 134.0389 79.5922 130.0639 79.7322 127.5989 71.7912 119.5699 76.6932C119.4959 76.5512 119.4479 76.4492 119.4479 76.4492L119.8399 75.8882C120.2119 75.3602 121.1279 73.5042 122.3749 69.1162 123.1969 67.0812 125.1669 65.4532 127.2959 66.5462 129.5509 67.7062 129.0019 70.7482 129.0019 70.7482 129.0019 70.7482 131.0239 66.5382 128.4829 63.4762 127.0729 62.0112 126.1679 61.6392 125.5089 61.3582 125.5039 61.3552 124.5179 60.7922 124.5179 59.7922 124.5179 58.8112 125.4589 58.3062 125.5019 58.2832 125.8139 58.1902 126.1669 58.1362 126.5569 58.1332 128.0129 58.1202 129.1509 58.8412 129.5769 59.1542L130.0789 57.0442C129.0569 55.2772 127.7979 54.0242 127.3409 53.6042 127.3669 53.4892 127.4079 53.3922 127.4579 53.3072 127.5839 53.1662 127.7719 52.9982 128.0869 52.8642 128.1209 52.8522 128.1439 52.8412 128.1789 52.8392 128.3559 52.7702 128.5689 52.7222 128.8099 52.7102 128.8449 52.7102 128.8709 52.7022 128.9079 52.6922 129.1119 52.6842 129.2819 52.6602 129.4529 52.6382 128.9529 51.9452 128.5399 51.2672 128.3329 50.5662 126.1789 43.2612 123.2079 46.6562 123.2079 46.6562 123.2079 46.6562 122.8749 45.0002 123.4279 43.4752L121.4699 41.2962C120.3099 41.9472 119.3239 42.7232 118.3969 42.9832 117.1019 43.3462 115.9839 42.6192 115.1459 41.9212 112.8619 39.8712 109.4949 37.7082 105.4099 37.7082 102.5029 37.7082 100.3579 38.1822 98.6989 38.9382 96.5749 39.6912 95.2319 40.9352 94.3109 42.0332 93.2869 43.2492 91.2339 40.3672 87.7119 40.4282 84.3809 40.4912 83.1659 42.5452 83.1659 42.5452 83.1659 42.5452 86.9099 41.4302 87.9029 45.1102 88.0599 45.6902 88.2079 46.4932 88.2079 46.4932 85.6739 45.7692 82.0279 44.3932 77.5219 47.8682 77.5219 47.8682 83.7699 46.7522 84.6849 52.5802 84.6849 52.5802 74.2389 53.5112 72.7059 59.9382 72.7059 59.9382 76.9289 58.4992 80.7099 59.3482 80.1409 59.7212 74.7719 63.4852 75.4489 72.6192 79.4129 64.6232 86.7469 64.2652 86.7469 64.2652 86.7469 64.2652 84.6939 66.5092 85.9059 72.8932 86.9539 78.4082 90.3259 80.6902 90.3259 80.6902 90.3259 80.6902 87.6779 74.0262 90.4739 72.1112 92.9779 71.5172 92.6279 72.8092 92.7599 73.9292 92.8979 75.0522 93.6619 77.8062 95.3759 79.1562 97.0919 80.5122 97.9039 80.1032 97.9039 80.1032 97.9039 80.1032 95.2379 77.9852 95.9609 75.4632 96.4559 73.7412 97.9309 74.2622 98.9929 75.0962 99.3599 75.4532 99.7979 75.9752 99.7979 75.9752L100.9579 85.4892 89.4529 93.3022C92.1879 95.7272 100.4899 103.1582 99.8319 103.4522 99.0479 103.8032 96.3749 114.5512 95.9339 115.5112 95.4929 116.4742 95.4579 123.0562 95.4579 123.9312 95.5419 125.0362 95.8269 131.6672 96.1549 139.6372 96.6659 152.0532 97.2809 167.7182 97.4029 170.8352 102.4629 170.3792 107.3249 169.2292 111.8909 167.4842L103.9579 123.6422 109.4779 104.4072 106.8159 96.7952 125.2559 74.5952 111.3559 97.0892 112.9109 104.5972 106.4319 122.4992 113.9449 166.6522C131.7409 159.0062 144.6529 142.1632 146.6899 122.1022L137.3439 120.9032 130.7029 112.2282C130.7029 112.2282 137.5769 118.3712 143.7579 118.3712 150.2259 118.3712 150.8299 117.0182 153.5189 114.3762 156.9329 111.0222 158.8519 111.7552 158.8519 111.7552 160.8779 108.7632 162.8249 104.8142 162.3119 100.5802"/>
    <path fill="#FEFEFE" d="M108.3373 52.7999C108.9083 56.7179 107.0263 60.2369 104.1363 60.6539 101.2453 61.0769 98.4393 58.2419 97.8753 54.3209 97.3063 50.3999 99.1853 46.8849 102.0753 46.4679 104.9643 46.0429 107.7733 48.8849 108.3373 52.7999M119.3636 51.8585C119.8286 55.0575 118.2916 57.9235 115.9436 58.2625 113.5876 58.6085 111.3016 56.2995 110.8406 53.1055 110.3776 49.9085 111.9096 47.0445 114.2636 46.7015 116.6166 46.3575 118.8976 48.6725 119.3636 51.8585"/>
    <polygon fill="#404042" points="32.833 216.043 152.037 216.043 152.037 177.862 32.833 177.862"/>
    <path fill="#FEFEFE" d="M156.9164,172.9835 L148.0344,172.9835 L28.8304,172.9835 L27.9544,172.9835 L27.9544,177.8625 L27.9544,216.0435 L27.9544,220.9215 L32.8334,220.9215 L152.0374,220.9215 L156.9164,220.9215 L156.9164,216.0435 L156.9164,177.8625 L156.9164,172.9835 Z M32.8334,216.0435 L152.0374,216.0435 L152.0374,177.8625 L32.8334,177.8625 L32.8334,216.0435 Z"/>
    <path fill="#404042" d="M92.5394,143.9083 C56.4134,143.9083 24.3874,141.1503 4.5304,136.9043 L4.5304,193.6793 C24.3874,189.4343 56.4134,186.6763 92.5394,186.6763 C128.5404,186.6763 160.4654,189.4143 180.3384,193.6333 L180.3424,136.9493 C160.4694,141.1693 128.5424,143.9083 92.5394,143.9083"/>
    <path fill="#FEFEFE" d="M0.0003,131.3028 L0.0003,136.9048 L0.0003,193.6788 L0.0003,199.2808 L5.4783,198.1098 C25.6973,193.7868 58.2433,191.2068 92.5393,191.2068 C126.6993,191.2068 159.1693,193.7708 179.3963,198.0658 L184.8683,199.2268 L184.8683,193.6338 L184.8723,136.9498 L184.8723,131.3558 L179.4003,132.5178 C159.1713,136.8138 126.6993,139.3778 92.5393,139.3778 C58.2403,139.3778 25.6943,136.7968 5.4783,132.4738 L0.0003,131.3028 Z M4.5303,136.9048 C24.3873,141.1508 56.4133,143.9078 92.5393,143.9078 C128.5423,143.9078 160.4693,141.1688 180.3423,136.9488 L180.3383,193.6328 C160.4653,189.4138 128.5403,186.6758 92.5393,186.6758 C56.4133,186.6758 24.3873,189.4338 4.5303,193.6788 L4.5303,136.9048 L4.5303,136.9048 Z"/>
    <path fill="#FEFEFE" d="M85.5257,148.4376 L85.5207,148.4356 C84.8397,148.4516 84.2837,148.6706 83.7897,149.1146 C83.2837,149.5816 83.0557,150.0836 83.0517,150.7086 L83.0497,179.0386 C83.0597,180.1456 83.8097,180.9896 85.5877,181.4326 L97.0337,181.4126 L97.0337,167.7786 L92.9327,167.4646 L92.9327,177.5706 L92.6277,177.5686 L89.0577,177.5556 C88.5307,177.5556 88.0467,177.3296 87.6967,176.9166 C87.3347,176.5136 87.1497,176.0036 87.1497,175.4416 L87.1497,154.2896 C87.1497,153.7296 87.3347,153.2176 87.6937,152.8156 C88.0447,152.4086 88.5257,152.2086 89.0507,152.2156 C89.1217,152.2156 89.3927,152.2106 89.5487,152.2156 C89.8567,152.2256 92.3247,152.2156 92.9467,152.2156 C93.8707,152.2156 95.1307,152.2376 96.7367,152.2156 L96.7367,148.4696 C93.6977,148.4586 88.6457,148.4476 85.5847,148.4376 L85.5257,148.4376 Z"/>
    <polygon fill="#FEFEFE" points="112.712 151.931 112.712 148.188 100.48 148.424 100.48 181.443 112.712 181.68 112.712 177.968 104.694 177.792 104.694 168.007 112.263 168.007 112.263 164.403 104.694 164.403 104.694 152.071"/>
    <polygon fill="#FEFEFE" points="131.395 182.516 131.395 147.364 116.309 148.074 116.309 181.806 120.337 181.958 120.337 151.563 127.369 151.192 127.369 182.29"/>
    <polygon fill="#FEFEFE" points="134.948 147.14 134.949 182.742 139.127 183.035 139.127 146.847"/>
    <polygon fill="#FEFEFE" points="142.682 183.311 157.767 184.797 157.767 145.084 153.745 145.535 153.745 180.668 146.709 179.929 146.704 146.219 142.686 146.532"/>
    <path fill="#FEFEFE" d="M171.4066 186.6554C171.9046 186.6534 172.3226 186.5164 172.7016 186.2384 173.1926 185.8604 173.4136 185.4224 173.4216 184.8024L173.4216 165.4604C173.4146 164.8394 173.1926 164.3404 172.6986 163.8864 172.2006 163.4384 171.6116 163.2084 170.8846 163.1824L167.2226 163.1824C166.7616 163.1834 166.3376 163.0334 166.0086 162.7294 165.6806 162.4364 165.4956 162.0284 165.5026 161.5894L165.5356 149.4704C165.5356 149.0484 165.7116 148.6414 166.0246 148.3014 166.3396 147.9464 166.7466 147.7224 167.2096 147.6494L173.6066 146.6034 173.5716 142.8124 164.0226 144.2954C163.3126 144.4124 162.7146 144.8784 162.1956 145.4324 161.6776 145.9924 161.4406 146.5714 161.4376 147.2144L161.4376 164.7124C161.4406 165.3584 161.6716 165.8684 162.1756 166.3224 162.6836 166.7724 163.2656 166.9904 163.9716 166.9944L167.5226 166.9944C167.9816 166.9904 168.4076 167.1464 168.7356 167.4484 169.0676 167.7384 169.2486 168.1474 169.2446 168.5844L169.2446 181.0894C169.2506 181.5274 169.0606 181.9304 168.7096 182.1854 168.4446 182.3734 168.1346 182.4734 167.7996 182.4734 167.6956 182.4734 167.5856 182.4644 167.4716 182.4454L161.3236 181.4324 161.3236 185.2314 170.9306 186.6154C171.0956 186.6404 171.2566 186.6554 171.4066 186.6554M32.9095 184.1808L32.9085 145.6988C21.0395 144.5218 11.4715 142.8158 11.4715 142.8158L11.4365 187.0698 15.4995 186.3988 15.5005 147.1568 20.0335 147.8008 20.0295 176.1098 24.0185 175.8018 24.0185 148.4378 28.7005 149.1038 28.6975 184.6358 32.9095 184.1808zM67.2621 176.046C67.2651 176.608 67.0801 177.117 66.7191 177.515 66.3651 177.909 65.8921 178.142 65.3701 178.162L60.1631 178.381 60.1631 151.507 60.4841 151.525C63.2631 151.677 64.9041 151.653 65.4121 151.751 65.8651 151.845 66.3391 151.98 66.7191 152.394 67.0801 152.792 67.2651 153.301 67.2621 153.86L67.2621 176.046zM70.5411 148.844C70.0291 148.353 69.4461 148.102 68.7391 148.067L55.9891 147.5 55.9891 182.384 68.7391 181.808C69.4431 181.769 70.1591 181.399 70.6421 180.843 71.1101 180.304 71.2841 179.919 71.2901 179.299L71.2881 179.299 71.2901 150.486C71.2841 149.865 71.0531 149.342 70.5411 148.844L70.5411 148.844zM41.1947 164.4025L41.2387 150.5415 48.3057 151.1685 48.2147 164.4025 41.1947 164.4025zM36.8857 146.0905L37.0677 183.7685 41.1307 183.4135 41.1817 167.9645 48.1867 167.9645 48.0777 182.8795 52.2977 182.5995 52.2977 147.2805 36.8857 146.0905zM43.7435 207.5235C41.7045 207.5235 40.1855 205.9335 40.1855 203.9155 40.1855 201.9165 41.6755 200.2875 43.7935 200.2875 45.0835 200.2875 45.8625 200.7365 46.5325 201.3765L45.7425 202.2865C45.1825 201.7665 44.5835 201.4165 43.7835 201.4165 42.4445 201.4165 41.4745 202.5155 41.4745 203.8945 41.4745 205.2745 42.4445 206.3935 43.7835 206.3935 44.6425 206.3935 45.1925 206.0445 45.7925 205.4845L46.5825 206.2845C45.8525 207.0435 45.0535 207.5235 43.7435 207.5235M51.6439 201.5265L49.8549 201.5265 49.8549 203.8755 51.6539 203.8755C52.5339 203.8755 53.0929 203.4155 53.0929 202.6955 53.0929 201.9255 52.5529 201.5265 51.6439 201.5265L51.6439 201.5265zM53.1129 207.4035L51.3939 204.9645 49.8549 204.9645 49.8549 207.4035 48.6249 207.4035 48.6249 200.4075 51.7439 200.4075C53.3529 200.4075 54.3419 201.2565 54.3419 202.6265 54.3419 203.7855 53.6529 204.4845 52.6729 204.7555L54.5619 207.4035 53.1129 207.4035z"/>
    <polygon fill="#FEFEFE" points="61.792 201.506 57.834 201.506 57.834 203.325 61.342 203.325 61.342 204.425 57.834 204.425 57.834 206.304 61.842 206.304 61.842 207.403 56.605 207.403 56.605 200.407 61.792 200.407"/>
    <path fill="#FEFEFE" d="M67.0834,201.8263 L65.8844,204.6253 L68.2924,204.6253 L67.0834,201.8263 Z M70.7514,207.4033 L69.4524,207.4033 L68.7424,205.7143 L65.4344,205.7143 L64.7154,207.4033 L63.4554,207.4033 L66.5334,200.3573 L67.6734,200.3573 L70.7514,207.4033 Z"/>
    <polygon fill="#FEFEFE" points="74.763 207.403 73.524 207.403 73.524 201.546 71.305 201.546 71.305 200.407 76.983 200.407 76.983 201.546 74.763 201.546"/>
    <polygon fill="#FEFEFE" points="79.106 207.403 80.335 207.403 80.335 200.407 79.106 200.407"/>
    <polygon fill="#FEFEFE" points="87.923 200.407 89.252 200.407 86.344 207.453 85.264 207.453 82.356 200.407 83.715 200.407 85.823 205.784"/>
    <polygon fill="#FEFEFE" points="96.393 201.506 92.435 201.506 92.435 203.325 95.943 203.325 95.943 204.425 92.435 204.425 92.435 206.304 96.443 206.304 96.443 207.403 91.206 207.403 91.206 200.407 96.393 200.407"/>
    <polygon fill="#FEFEFE" points="107.612 201.526 103.634 201.526 103.634 203.435 107.163 203.435 107.163 204.554 103.634 204.554 103.634 207.404 102.405 207.404 102.405 200.407 107.612 200.407"/>
    <path fill="#FEFEFE" d="M115.5921 204.3751C115.5921 206.4641 114.4121 207.5131 112.5831 207.5131 110.7651 207.5131 109.6061 206.4641 109.6061 204.4351L109.6061 200.4071 110.8341 200.4071 110.8341 204.3851C110.8341 205.6841 111.5041 206.3841 112.6041 206.3841 113.6931 206.3841 114.3631 205.7241 114.3631 204.4351L114.3631 200.4071 115.5921 200.4071 115.5921 204.3751zM120.7328 203.3458C122.2118 203.7048 122.9818 204.2348 122.9818 205.4048 122.9818 206.7238 121.9528 207.5028 120.4838 207.5028 119.4138 207.5028 118.4048 207.1328 117.5648 206.3838L118.3038 205.5038C118.9738 206.0838 119.6438 206.4138 120.5128 206.4138 121.2728 206.4138 121.7528 206.0638 121.7528 205.5248 121.7528 205.0148 121.4728 204.7438 120.1728 204.4448 118.6838 204.0848 117.8448 203.6458 117.8448 202.3458 117.8448 201.1268 118.8438 200.3068 120.2338 200.3068 121.2538 200.3068 122.0628 200.6168 122.7718 201.1868L122.1128 202.1168C121.4828 201.6468 120.8528 201.3968 120.2128 201.3968 119.4938 201.3968 119.0738 201.7668 119.0738 202.2368 119.0738 202.7848 119.3938 203.0258 120.7328 203.3458"/>
    <polygon fill="#FEFEFE" points="125.256 207.403 126.485 207.403 126.485 200.407 125.256 200.407"/>
    <path fill="#FEFEFE" d="M132.4427,201.4161 C131.0537,201.4161 130.0847,202.5251 130.0847,203.8951 C130.0847,205.2651 131.0737,206.3941 132.4637,206.3941 C133.8517,206.3941 134.8217,205.2841 134.8217,203.9151 C134.8217,202.5461 133.8327,201.4161 132.4427,201.4161 M132.4427,207.5231 C130.2947,207.5231 128.7957,205.8941 128.7957,203.9151 C128.7957,201.9371 130.3137,200.2871 132.4637,200.2871 C134.6117,200.2871 136.1107,201.9161 136.1107,203.8951 C136.1107,205.8741 134.5917,207.5231 132.4427,207.5231"/>
    <polygon fill="#FEFEFE" points="143.243 200.407 144.452 200.407 144.452 207.403 143.423 207.403 139.564 202.426 139.564 207.403 138.355 207.403 138.355 200.407 139.494 200.407 143.243 205.244"/>
  </g>
</svg>
